<?xml version="1.0" encoding="UTF-8" standalone="no"?>
<svg width="100px" height="100px" viewBox="0 0 100 100" version="1.1" xmlns="http://www.w3.org/2000/svg" xmlns:xlink="http://www.w3.org/1999/xlink" xmlns:sketch="http://www.bohemiancoding.com/sketch/ns">
    <!-- Generator: Sketch 3.4.4 (17249) - http://www.bohemiancoding.com/sketch -->
    <title>Slice 1</title>
    <desc>Created with Sketch.</desc>
    <defs></defs>
    <g id="Page-1" stroke="none" stroke-width="1" fill="none" fill-rule="evenodd" sketch:type="MSPage">
        <path d="M69.4080033,74.436 C66.9600033,74.436 64.9750033,72.427 64.9750033,69.946 C64.9750033,67.468 66.9600033,65.457 69.4080033,65.457 C71.8560033,65.457 73.8400033,67.468 73.8400033,69.946 C73.8400033,72.427 71.8560033,74.436 69.4080033,74.436 L69.4080033,74.436 Z M26.2930033,58.597 C25.7370033,58.505 25.2860033,57.968 25.2920033,57.405 L25.6190033,23.285 C25.6240033,22.722 26.0830033,22.183 26.6390033,22.089 C26.6390033,22.089 37.5460033,20.234 49.5920033,20.304 C62.5030033,20.378 72.4110033,22.086 72.4110033,22.086 C72.9670033,22.182 73.4260033,22.722 73.4320033,23.285 L73.7940033,57.405 C73.8000033,57.968 73.3520033,58.518 72.7990033,58.626 C72.7990033,58.626 65.9430033,59.963 49.5840033,59.963 C34.5280033,59.963 26.2930033,58.597 26.2930033,58.597 L26.2930033,58.597 Z M29.8790033,74.436 C27.4310033,74.436 25.4450033,72.427 25.4450033,69.946 C25.4450033,67.468 27.4310033,65.457 29.8790033,65.457 C32.3270033,65.457 34.3110033,67.468 34.3110033,69.946 C34.3110033,72.427 32.3270033,74.436 29.8790033,74.436 L29.8790033,74.436 Z M82.1820033,22.909 L78.8230033,22.903 C78.2960033,20.26 76.5490033,17.673 72.0910033,16.435 C67.6020033,15.188 60.8830033,14 49.6810033,14 C38.6670033,14 31.8130033,14.737 26.5870033,16.371 C22.6620033,17.599 20.8710033,20.367 20.3380033,22.965 L17.0850033,22.959 C15.9570033,22.957 15.0330033,23.878 15.0310033,25.005 L15.0000033,42.059 C14.9980033,43.187 15.9190033,44.111 17.0460033,44.113 L19.3240033,44.118 C19.3170033,59.21 20.1720033,74.81 20.1720033,74.81 C20.2030033,75.373 20.4080033,76.258 20.6290033,76.777 L21.4330033,78.671 C21.6540033,79.189 21.8340033,80.075 21.8340033,80.639 L21.8340033,85.046 C21.8340033,85.609 22.2950033,86.07 22.8590033,86.07 L31.3360033,86.07 C31.9000033,86.07 32.3610033,85.609 32.3610033,85.046 L32.3610033,80.639 C32.3610033,80.075 32.8220033,79.633 33.3850033,79.656 C33.3850033,79.656 44.4740033,80.107 49.4590033,80.107 C54.7420033,80.107 66.3980033,79.654 66.3980033,79.654 C66.9620033,79.632 67.4220033,80.075 67.4220033,80.639 L67.4220033,85.046 C67.4220033,85.609 67.8840033,86.07 68.4470033,86.07 L76.9250033,86.07 C77.4880033,86.07 77.9500033,85.609 77.9500033,85.046 L77.9500033,80.639 C77.9500033,80.075 78.0460033,79.163 78.1650033,78.612 L78.6430033,76.384 C78.7620033,75.833 78.8860033,74.922 78.9190033,74.359 C78.9190033,74.359 79.8390033,58.726 79.9010033,44.059 L82.1430033,44.063 C83.2710033,44.065 84.1950033,43.145 84.1970033,42.017 L84.2280033,24.963 C84.2300033,23.836 83.3090033,22.911 82.1820033,22.909 L82.1820033,22.909 Z" id="Fill-10" fill="#FFFFFF" sketch:type="MSShapeGroup"></path>
    </g>
</svg>