<?xml version="1.0" encoding="UTF-8" standalone="no"?>
<svg width="100px" height="100px" viewBox="0 0 100 100" version="1.1" xmlns="http://www.w3.org/2000/svg" xmlns:xlink="http://www.w3.org/1999/xlink" xmlns:sketch="http://www.bohemiancoding.com/sketch/ns">
    <!-- Generator: Sketch 3.4.4 (17249) - http://www.bohemiancoding.com/sketch -->
    <title>Slice 1</title>
    <desc>Created with Sketch.</desc>
    <defs></defs>
    <g id="Page-1" stroke="none" stroke-width="1" fill="none" fill-rule="evenodd" sketch:type="MSPage">
        <path d="M80.1,29.5161108 C82.903,26.6471108 88.589,16.4911108 85.833,13.7351108 C83.076,10.9781108 72.921,16.6631108 70.05,19.4651108 L70.047,19.4621108 L69.982,19.5281108 C69.98,19.5301108 69.977,19.5321108 69.976,19.5331108 C69.974,19.5351108 69.973,19.5371108 69.971,19.5381108 L63.228,26.2811108 C59.648,25.6191108 53.117,24.4651108 47.486,23.7601108 C36.857,22.4311108 23.294,21.6711108 19.027,21.7501108 C18.131,21.7681108 17.797,21.8421108 17.468,21.9741108 C17.161,22.0961108 16.67,22.6531108 16.67,22.6531108 L13.724,25.6011108 C13.724,25.6011108 13.411,25.9731108 13.483,26.3431108 C13.596,26.9321108 14.375,27.2441108 14.375,27.2441108 L48.732,38.6971108 C48.732,38.6971108 49.391,39.1731108 49.402,39.6371108 C49.409,39.9171108 49.312,40.1431108 49.205,40.3221108 L29.386,63.6181108 L16.382,63.2551108 L13,66.6371108 C13,66.6371108 22.588,71.8771108 25.137,74.4261108 C27.689,76.9751108 32.931,86.5661108 32.931,86.5661108 L36.313,83.1851108 L35.946,70.1781108 L58.854,50.6711108 L58.872,50.6721108 C58.872,50.6721108 58.899,50.6401108 58.945,50.5941108 L58.963,50.5781108 C59.118,50.4311108 59.465,50.1611108 59.937,50.1721108 C60.401,50.1831108 60.877,50.8441108 60.877,50.8441108 L72.33,85.1991108 C72.33,85.1991108 72.642,85.9801108 73.231,86.0921108 C73.602,86.1631108 73.974,85.8521108 73.974,85.8521108 L76.921,82.9041108 C76.921,82.9041108 77.488,82.3771108 77.611,82.0691108 C77.742,81.7401108 77.817,81.4421108 77.824,80.5481108 C77.86,76.2491108 77.143,62.7181108 75.814,52.0881108 C75.109,46.4501108 73.953,39.9111108 73.291,36.3341108 L80.104,29.5201108 L80.1,29.5161108" id="Fill-13" fill="#FFFFFF" sketch:type="MSShapeGroup"></path>
    </g>
</svg>