<?xml version="1.0" encoding="UTF-8" standalone="no"?>
<svg width="100px" height="100px" viewBox="0 0 100 100" version="1.1" xmlns="http://www.w3.org/2000/svg" xmlns:xlink="http://www.w3.org/1999/xlink" xmlns:sketch="http://www.bohemiancoding.com/sketch/ns">
    <!-- Generator: Sketch 3.4.4 (17249) - http://www.bohemiancoding.com/sketch -->
    <title>Slice 1</title>
    <desc>Created with Sketch.</desc>
    <defs></defs>
    <g id="Page-1" stroke="none" stroke-width="1" fill="none" fill-rule="evenodd" sketch:type="MSPage">
        <path d="M74.587,41.057 C74.587,46.597 71.466,46.857 50.515,46.857 C29.377,46.857 25.754,46.597 25.754,41.057 L25.754,31.786 C25.754,25.093 36.687,20.763 50.172,20.763 C63.664,20.763 74.587,25.093 74.587,31.786 L74.587,41.057 L74.587,41.057 Z M66.607,61.614 C64.101,61.614 62.071,59.558 62.071,57.021 C62.071,54.486 64.101,52.429 66.607,52.429 C69.111,52.429 71.141,54.486 71.141,57.021 C71.141,59.558 69.111,61.614 66.607,61.614 L66.607,61.614 Z M33.787,61.614 C31.282,61.614 29.252,59.558 29.252,57.021 C29.252,54.486 31.282,52.429 33.787,52.429 C36.292,52.429 38.321,54.486 38.321,57.021 C38.321,59.558 36.292,61.614 33.787,61.614 L33.787,61.614 Z M79.59,30.01 L79.545,30.01 C79.171,22.223 70.752,17.008 59.279,15.206 L59.279,9.89 C59.279,9.89 55.228,9 50.515,9 C45.801,9 41.465,9.89 41.465,9.89 L41.465,15.088 C29.697,16.775 21.167,22.05 20.793,30.01 L20.755,30.01 C20.755,30.01 20,36.199 20,45.592 C20,55.225 20.755,61.709 20.755,61.709 L20.784,61.709 C20.969,67.222 24.29,72.191 29.543,75.796 C29.543,75.796 30.259,76.325 31.763,77.009 C30.116,80.118 23.845,89.203 23.291,91.2 C24.813,91.2 29.439,91.27 30.724,91.159 C31.057,91.135 31.537,90.756 31.7,90.273 C32.093,89.112 36.324,83.03 38.711,79.173 C41.702,79.785 45.431,79.873 50.117,79.873 C54.89,79.873 58.752,79.723 61.81,79.062 C64.137,82.971 68.091,89.294 68.751,90.558 C68.911,90.861 69.181,91.159 69.418,91.166 C70.8,91.224 75.598,91.19 77.054,91.19 C73.643,84.982 70.036,79.646 68.588,76.949 C70.03,76.304 70.797,75.796 70.797,75.796 C76.053,72.191 79.374,67.222 79.563,61.709 L79.59,61.709 C79.59,61.709 80.327,53.54 80.327,45.23 C80.327,37.284 79.59,30.01 79.59,30.01 L79.59,30.01 Z" id="Fill-11" fill="#FFFFFF" sketch:type="MSShapeGroup"></path>
    </g>
</svg>